<svg width="32" height="32" viewBox="0 0 32 32" fill="none" xmlns="http://www.w3.org/2000/svg">
<path d="M23.7449 11.917C23.2467 13.8218 22.0842 14.2414 21.4639 14.3256C21.0818 15.0895 20.2419 16.6507 19.4017 17.4351C19.0659 17.7485 18.6294 18.0131 18.1046 18.2214C17.4345 18.4872 16.7268 18.6221 16.0014 18.6221C15.276 18.6221 14.5683 18.4872 13.8983 18.2214C13.3736 18.0132 12.937 17.7487 12.6012 17.4351C11.7608 16.6508 10.921 15.0895 10.5389 14.3256C9.91871 14.2414 8.75616 13.822 8.25796 11.917C7.99152 10.8984 8.05974 10.068 8.46087 9.44887C8.61318 9.21261 8.81536 9.01253 9.0532 8.86269C9.05379 8.65934 9.06228 8.40476 9.08585 8.11518C8.72556 7.61449 8.23571 6.53422 8.84239 4.78563C9.48361 2.93705 10.9334 2.65158 11.6332 2.62683C11.8698 2.18705 12.3167 1.56266 13.1284 0.988631C14.0293 0.351064 15.2058 0 16.4409 0C17.9608 0 19.4903 0.534941 20.8638 1.547C23.0907 3.18783 22.8999 6.8276 22.8453 7.48845C22.9261 8.04242 22.9485 8.5229 22.9495 8.86255C23.1874 9.01239 23.3895 9.21246 23.5419 9.44873C23.943 10.068 24.0112 10.8982 23.7449 11.917ZM30.2576 26.1014V31.268C30.2576 31.4621 30.1805 31.6483 30.0432 31.7856C29.9059 31.9229 29.7197 32 29.5256 32H2.47711C2.28297 32 2.09679 31.9229 1.95951 31.7856C1.82224 31.6483 1.74512 31.4621 1.74512 31.268V26.1014C1.74512 23.9848 3.01498 22.1091 4.98024 21.323L11.3801 18.7631C11.4712 18.7266 11.5688 18.7088 11.6669 18.7109C11.7651 18.7129 11.8619 18.7346 11.9514 18.7748C12.041 18.815 12.1216 18.8728 12.1884 18.9448C12.2552 19.0168 12.3068 19.1014 12.3401 19.1938L13.9491 23.6418L14.2676 22.7259L13.7608 21.487C13.7154 21.3758 13.698 21.2551 13.7102 21.1357C13.7223 21.0162 13.7637 20.9016 13.8307 20.8019C13.8976 20.7022 13.9881 20.6204 14.094 20.5639C14.2 20.5074 14.3182 20.4779 14.4383 20.4778H17.5645C17.6846 20.4778 17.8029 20.5074 17.9089 20.5639C18.0149 20.6204 18.1053 20.7021 18.1723 20.8018C18.2392 20.9015 18.2806 21.0162 18.2928 21.1357C18.305 21.2551 18.2875 21.3758 18.2421 21.487L17.7352 22.7259L18.0538 23.6418L19.6627 19.1938C19.6961 19.1014 19.7477 19.0168 19.8145 18.9448C19.8812 18.8729 19.9618 18.8151 20.0514 18.7749C20.141 18.7348 20.2378 18.7131 20.3359 18.711C20.4341 18.709 20.5316 18.7267 20.6228 18.7631L27.0226 21.323C28.9879 22.1091 30.2576 23.9848 30.2576 26.1014ZM26.3611 26.6632C26.3611 26.469 26.2839 26.2829 26.1467 26.1456C26.0094 26.0083 25.8232 25.9312 25.6291 25.9312H20.7145C20.5203 25.9312 20.3341 26.0083 20.1969 26.1456C20.0596 26.2829 19.9825 26.469 19.9825 26.6632V28.9455C19.9825 29.1397 20.0596 29.3259 20.1969 29.4631C20.3341 29.6004 20.5203 29.6775 20.7145 29.6775H25.6291C25.8232 29.6775 26.0094 29.6004 26.1467 29.4631C26.2839 29.3259 26.3611 29.1397 26.3611 28.9455V26.6632Z" fill="#718096"/>
</svg>
