<svg width="32" height="32" viewBox="0 0 32 32" fill="none" xmlns="http://www.w3.org/2000/svg">
<path d="M22.3616 24.5183C20.5976 25.8737 18.3915 26.6809 16.0001 26.6809C13.6086 26.6809 11.4025 25.8737 9.63855 24.5183V32H22.3616V24.5183ZM24.5085 23.2743H24.2364V32H32V30.7658C32 26.635 28.6393 23.2743 24.5085 23.2743ZM7.76357 23.2743H7.49152C3.36072 23.2743 0 26.635 0 30.7658V32H7.76357V23.2743ZM19.7509 1.98914V8.77426H24.5348C24.3705 7.24858 23.8062 5.80939 22.8758 4.56795C22.0559 3.47394 20.9728 2.5863 19.7509 1.98914ZM9.1242 4.56808C8.1938 5.80958 7.62952 7.24864 7.46528 8.77432H12.2492V1.98914C11.0272 2.5863 9.9441 3.474 9.1242 4.56808Z" fill="#718096"/>
<path d="M16.0001 24.8059C20.7346 24.8059 24.5864 20.9541 24.5864 16.2196V14.8693H7.4138V16.2196C7.4138 20.9541 11.2656 24.8059 16.0001 24.8059ZM14.1241 0H17.8761V8.77428H14.1241V0ZM5.30371 10.6492H26.6965V12.9945H5.30371V10.6492Z" fill="#718096"/>
</svg>
