<svg width="21" height="20" viewBox="0 0 21 20" fill="none" xmlns="http://www.w3.org/2000/svg">
<g clip-path="url(#clip0_486_1897)">
<path d="M19.6667 13.3335V10.7668C19.6667 6.82183 17.0142 3.33516 13.1833 2.18933C12.5758 1.36766 11.5992 0.833496 10.5 0.833496C9.40083 0.833496 8.42417 1.36766 7.81667 2.18933C3.985 3.33516 1.33333 6.82183 1.33333 10.7668V13.3335C0.873333 13.3335 0.5 13.706 0.5 14.1668C0.5 14.6277 0.873333 15.0002 1.33333 15.0002H1.72917C2.56417 16.1235 5.30667 19.1668 10.5 19.1668C15.6933 19.1668 18.435 16.1235 19.2708 15.0002H19.6667C20.1275 15.0002 20.5 14.6277 20.5 14.1668C20.5 13.706 20.1275 13.3335 19.6667 13.3335ZM18 10.7668V13.3335H13.8333V4.22433C16.3425 5.4385 18 7.961 18 10.7668ZM10.5 2.50016C11.4192 2.50016 12.1667 3.246 12.1667 4.16183V13.3335H8.83333V4.16183C8.83333 3.24516 9.58083 2.50016 10.5 2.50016ZM7.16667 4.22433V13.3335H3V10.7668C3 7.961 4.65667 5.4385 7.16667 4.22433ZM3.95083 15.0002H17.0375C15.88 16.0935 13.7575 17.5002 10.5 17.5002C7.2175 17.5002 5.10083 16.0943 3.95083 15.0002Z" fill="#718096"/>
</g>
<defs>
<clipPath id="clip0_486_1897">
<rect width="20" height="20" fill="white" transform="translate(0.5)"/>
</clipPath>
</defs>
</svg>
