<svg width="18" height="18" viewBox="0 0 18 18" fill="none" xmlns="http://www.w3.org/2000/svg">
<g clip-path="url(#clip0_156_1795)">
<path d="M8.9684 18.0059L8.44559 17.5578C7.72486 16.9543 1.43164 11.5192 1.43164 7.5436C1.43164 3.38117 4.80597 0.00683594 8.9684 0.00683594C13.1308 0.00683594 16.5052 3.38117 16.5052 7.5436C16.5052 11.5192 10.2119 16.9543 9.4942 17.5607L8.9684 18.0059ZM8.9684 1.6365C5.70755 1.6402 3.06504 4.28272 3.06134 7.54356C3.06134 10.0411 6.93317 14.0309 8.9684 15.8571C11.0037 14.0302 14.8755 10.0381 14.8755 7.54356C14.8718 4.28272 12.2293 1.64023 8.9684 1.6365Z" fill="#718096"/>
<path d="M8.96798 10.5314C7.31802 10.5314 5.98047 9.19386 5.98047 7.5439C5.98047 5.89395 7.31802 4.5564 8.96798 4.5564C10.6179 4.5564 11.9555 5.89395 11.9555 7.5439C11.9555 9.19386 10.618 10.5314 8.96798 10.5314ZM8.96798 6.05012C8.143 6.05012 7.47422 6.71889 7.47422 7.54387C7.47422 8.36885 8.143 9.03762 8.96798 9.03762C9.79295 9.03762 10.4617 8.36885 10.4617 7.54387C10.4617 6.71889 9.79299 6.05012 8.96798 6.05012Z" fill="#718096"/>
</g>
<defs>
<clipPath id="clip0_156_1795">
<rect width="18" height="18" fill="white"/>
</clipPath>
</defs>
</svg>
