<svg width="21" height="20" viewBox="0 0 21 20" fill="none" xmlns="http://www.w3.org/2000/svg">
<g clip-path="url(#clip0_174_494)">
<path d="M11.7499 8.75C11.7499 9.44 11.1899 10 10.4999 10C9.80986 10 9.24986 9.44 9.24986 8.75C9.24986 8.06 9.80986 7.5 10.4999 7.5C11.1899 7.5 11.7499 8.06 11.7499 8.75ZM14.6665 7.5C13.9765 7.5 13.4165 8.06 13.4165 8.75C13.4165 9.44 13.9765 10 14.6665 10C15.3565 10 15.9165 9.44 15.9165 8.75C15.9165 8.06 15.3565 7.5 14.6665 7.5ZM6.33319 7.5C5.64319 7.5 5.08319 8.06 5.08319 8.75C5.08319 9.44 5.64319 10 6.33319 10C7.02319 10 7.58319 9.44 7.58319 8.75C7.58319 8.06 7.02319 7.5 6.33319 7.5ZM20.4999 3.33333V13.3333C20.4999 15.1717 19.0049 16.6667 17.1665 16.6667H14.7899L11.5832 19.3167C11.2824 19.585 10.8965 19.72 10.5065 19.72C10.1099 19.72 9.71069 19.58 9.39236 19.2975L6.26819 16.6667H3.83236C1.99402 16.6667 0.499023 15.1717 0.499023 13.3333V3.33333C0.499857 1.495 1.99486 0 3.83319 0H17.1665C19.0049 0 20.4999 1.495 20.4999 3.33333ZM18.8332 3.33333C18.8332 2.41417 18.0857 1.66667 17.1665 1.66667H3.83319C2.91402 1.66667 2.16652 2.41417 2.16652 3.33333V13.3333C2.16652 14.2525 2.91402 15 3.83319 15H6.57319C6.76902 15 6.95986 15.0692 7.11069 15.1958L10.484 18.0375L13.9599 15.1908C14.109 15.0675 14.2965 15 14.4907 15H17.1674C18.0865 15 18.834 14.2525 18.834 13.3333L18.8332 3.33333Z" fill="#1773E2"/>
</g>
<defs>
<clipPath id="clip0_174_494">
<rect width="20" height="20" fill="white" transform="translate(0.5)"/>
</clipPath>
</defs>
</svg>
