<svg width="20" height="20" viewBox="0 0 20 20" fill="none" xmlns="http://www.w3.org/2000/svg">
<path d="M11.8177 14.5475C11.6852 15.2925 10.9735 15.8333 10.1268 15.8333C9.44185 15.8333 8.79852 15.5575 8.36185 15.0758C8.16935 14.8642 8.18518 14.5367 8.39685 14.345C8.60852 14.1525 8.93602 14.1683 9.12768 14.38C9.36518 14.6417 9.73768 14.7975 10.1252 14.7975C10.4968 14.7975 10.7577 14.5775 10.796 14.365C10.8468 14.0792 10.4218 13.8992 10.2902 13.85C9.66685 13.62 9.10518 13.3692 9.10518 13.3692C8.60852 13.0525 8.38935 12.5667 8.46102 12.0608C8.53852 11.5225 8.93185 11.0842 9.48768 10.9167C10.5793 10.5875 11.4827 11.33 11.5194 11.3617L11.5218 11.3633C11.7393 11.5467 11.7677 11.8717 11.5843 12.0892L11.5802 12.0933C11.3968 12.3108 11.0727 12.3392 10.8552 12.1558C10.8343 12.1392 10.331 11.7458 9.78602 11.9075C9.54352 11.9808 9.49518 12.1417 9.48602 12.2067C9.47935 12.2558 9.47518 12.3767 9.59352 12.4575C9.60685 12.4575 10.1027 12.6758 10.6477 12.8775C11.661 13.2517 11.9152 13.9842 11.8144 14.5458L11.8177 14.5475ZM6.81935 14.1883C6.63018 14.1883 6.45352 14.2892 6.36518 14.4567C6.26185 14.6533 6.05018 14.7917 5.81102 14.7958C5.47852 14.79 5.21018 14.52 5.21102 14.1858C5.21102 14.0717 5.20518 12.5875 5.20435 12.5083C5.20352 12.1742 5.47185 11.9042 5.80435 11.8983C6.04352 11.9025 6.25518 12.0408 6.35852 12.2375C6.44685 12.405 6.62352 12.5058 6.81268 12.5058C7.20435 12.5058 7.45518 12.0883 7.27102 11.7425C6.99185 11.2192 6.43518 10.8608 5.79435 10.8608C4.89435 10.8608 4.16435 11.5908 4.16435 12.4908L4.17102 14.2033C4.17102 15.1033 4.90102 15.8333 5.80102 15.8333C6.44102 15.8333 6.99852 15.475 7.27768 14.9517C7.46185 14.6058 7.21102 14.1883 6.81935 14.1883ZM15.1585 10.8608H15.1485C14.9102 10.8608 14.7052 11.0283 14.656 11.2608L14.1727 13.58L13.5843 11.2408C13.5285 11.0175 13.3268 10.8608 13.0968 10.8608C12.7693 10.8608 12.5293 11.1692 12.6093 11.4867L13.5802 15.3417C13.6527 15.6308 13.9127 15.8333 14.211 15.8333C14.5194 15.8333 14.7852 15.6175 14.8477 15.3158L15.651 11.4667C15.716 11.1542 15.4777 10.8608 15.1585 10.8608ZM18.3319 8.7375V15.8333C18.3319 18.1308 16.4627 20 14.1652 20H5.83268C3.53518 20 1.66602 18.1308 1.66602 15.8333V4.16667C1.66602 1.86917 3.53518 0 5.83268 0H9.59518C11.1535 0 12.6185 0.6075 13.7202 1.70917L16.6235 4.6125C17.7252 5.71417 18.3319 7.17917 18.3319 8.7375ZM12.541 2.88667C12.276 2.62167 11.9818 2.3975 11.6652 2.215V5.8325C11.6652 6.2925 12.0385 6.66583 12.4985 6.66583H16.116C15.9344 6.34917 15.7093 6.055 15.4444 5.79L12.541 2.88667ZM16.6652 8.7375C16.6652 8.60167 16.6585 8.46667 16.646 8.33333H12.4985C11.1202 8.33333 9.99852 7.21167 9.99852 5.83333V1.68583C9.86518 1.67333 9.73018 1.66667 9.59435 1.66667H5.83185C4.45352 1.66667 3.33185 2.78833 3.33185 4.16667V15.8333C3.33185 17.2117 4.45352 18.3333 5.83185 18.3333H14.1652C15.5435 18.3333 16.6652 17.2117 16.6652 15.8333V8.7375Z" fill="#1773E2"/>
</svg>
