<svg width="21" height="20" viewBox="0 0 21 20" fill="none" xmlns="http://www.w3.org/2000/svg">
<g clip-path="url(#clip0_486_1885)">
<path d="M19.6667 13.3333V10.7666C19.6667 6.82159 17.0142 3.33492 13.1833 2.18909C12.5758 1.36742 11.5992 0.833252 10.5 0.833252C9.40083 0.833252 8.42417 1.36742 7.81667 2.18909C3.985 3.33492 1.33333 6.82159 1.33333 10.7666V13.3333C0.873333 13.3333 0.5 13.7058 0.5 14.1666C0.5 14.6274 0.873333 14.9999 1.33333 14.9999H1.72917C2.56417 16.1233 5.30667 19.1666 10.5 19.1666C15.6933 19.1666 18.435 16.1233 19.2708 14.9999H19.6667C20.1275 14.9999 20.5 14.6274 20.5 14.1666C20.5 13.7058 20.1275 13.3333 19.6667 13.3333ZM18 10.7666V13.3333H13.8333V4.22409C16.3425 5.43825 18 7.96075 18 10.7666ZM10.5 2.49992C11.4192 2.49992 12.1667 3.24575 12.1667 4.16159V13.3333H8.83333V4.16159C8.83333 3.24492 9.58083 2.49992 10.5 2.49992ZM7.16667 4.22409V13.3333H3V10.7666C3 7.96075 4.65667 5.43825 7.16667 4.22409ZM3.95083 14.9999H17.0375C15.88 16.0933 13.7575 17.4999 10.5 17.4999C7.2175 17.4999 5.10083 16.0941 3.95083 14.9999Z" fill="#1773E2"/>
</g>
<defs>
<clipPath id="clip0_486_1885">
<rect width="20" height="20" fill="white" transform="translate(0.5)"/>
</clipPath>
</defs>
</svg>
