<svg width="33" height="32" viewBox="0 0 33 32" fill="none" xmlns="http://www.w3.org/2000/svg">
<path d="M28.4993 5.33333H24.366C24.0566 3.82855 23.2378 2.47646 22.0477 1.50496C20.8576 0.533453 19.369 0.00193937 17.8327 0L15.166 0C13.6297 0.00193937 12.1411 0.533453 10.951 1.50496C9.76092 2.47646 8.94214 3.82855 8.63268 5.33333H4.49935C4.14573 5.33333 3.80659 5.47381 3.55654 5.72386C3.30649 5.97391 3.16602 6.31305 3.16602 6.66667C3.16602 7.02029 3.30649 7.35943 3.55654 7.60948C3.80659 7.85952 4.14573 8 4.49935 8H5.83268V25.3333C5.8348 27.1008 6.53786 28.7953 7.78764 30.045C9.03743 31.2948 10.7319 31.9979 12.4993 32H20.4993C22.2668 31.9979 23.9613 31.2948 25.2111 30.045C26.4608 28.7953 27.1639 27.1008 27.166 25.3333V8H28.4993C28.853 8 29.1921 7.85952 29.4422 7.60948C29.6922 7.35943 29.8327 7.02029 29.8327 6.66667C29.8327 6.31305 29.6922 5.97391 29.4422 5.72386C29.1921 5.47381 28.853 5.33333 28.4993 5.33333ZM15.166 2.66667H17.8327C18.6597 2.66768 19.4662 2.9245 20.1415 3.40192C20.8168 3.87935 21.3279 4.55399 21.6047 5.33333H11.394C11.6708 4.55399 12.1819 3.87935 12.8572 3.40192C13.5325 2.9245 14.339 2.66768 15.166 2.66667ZM24.4993 25.3333C24.4993 26.3942 24.0779 27.4116 23.3278 28.1618C22.5776 28.9119 21.5602 29.3333 20.4993 29.3333H12.4993C11.4385 29.3333 10.4211 28.9119 9.67092 28.1618C8.92078 27.4116 8.49935 26.3942 8.49935 25.3333V8H24.4993V25.3333Z" fill="white"/>
<path d="M13.8333 24.0003C14.187 24.0003 14.5261 23.8598 14.7761 23.6098C15.0262 23.3597 15.1667 23.0206 15.1667 22.667V14.667C15.1667 14.3133 15.0262 13.9742 14.7761 13.7241C14.5261 13.4741 14.187 13.3336 13.8333 13.3336C13.4797 13.3336 13.1406 13.4741 12.8905 13.7241C12.6405 13.9742 12.5 14.3133 12.5 14.667V22.667C12.5 23.0206 12.6405 23.3597 12.8905 23.6098C13.1406 23.8598 13.4797 24.0003 13.8333 24.0003Z" fill="white"/>
<path d="M19.1673 24.0003C19.5209 24.0003 19.8601 23.8598 20.1101 23.6098C20.3602 23.3597 20.5007 23.0206 20.5007 22.667V14.667C20.5007 14.3133 20.3602 13.9742 20.1101 13.7241C19.8601 13.4741 19.5209 13.3336 19.1673 13.3336C18.8137 13.3336 18.4746 13.4741 18.2245 13.7241C17.9745 13.9742 17.834 14.3133 17.834 14.667V22.667C17.834 23.0206 17.9745 23.3597 18.2245 23.6098C18.4746 23.8598 18.8137 24.0003 19.1673 24.0003Z" fill="white"/>
</svg>
