<svg width="61" height="60" viewBox="0 0 61 60" fill="none" xmlns="http://www.w3.org/2000/svg">
<rect x="0.5" width="60" height="60" rx="12" fill="#FF5800"/>
<g clip-path="url(#clip0_854_10020)">
<path fill-rule="evenodd" clip-rule="evenodd" d="M30.4986 13C24.6111 13 19.8242 17.8296 19.8242 23.7867C19.8242 25.8046 20.713 28.3079 22.0065 30.8049C24.8546 36.3034 29.5988 41.8415 29.5988 41.8415C29.7102 41.9712 29.8482 42.0752 30.0035 42.1466C30.1588 42.2179 30.3277 42.2549 30.4986 42.2549C30.6695 42.2549 30.8384 42.2179 30.9937 42.1466C31.1491 42.0752 31.2871 41.9712 31.3985 41.8415C31.3985 41.8415 36.1426 36.3034 38.9907 30.8049C40.2843 28.3079 41.1731 25.8046 41.1731 23.7867C41.1731 17.8296 36.3862 13 30.4986 13ZM30.4986 19.3256C29.3656 19.3561 28.2891 19.8277 27.4985 20.64C26.7079 21.4522 26.2655 22.5409 26.2655 23.6744C26.2655 24.8079 26.7079 25.8966 27.4985 26.7089C28.2891 27.5211 29.3656 27.9927 30.4986 28.0233C31.6317 27.9927 32.7081 27.5211 33.4987 26.7089C34.2894 25.8966 34.7318 24.8079 34.7318 23.6744C34.7318 22.5409 34.2894 21.4522 33.4987 20.64C32.7081 19.8277 31.6317 19.3561 30.4986 19.3256Z" fill="white"/>
<path fill-rule="evenodd" clip-rule="evenodd" d="M38.0647 38.5043C39.3504 38.8902 40.4099 39.3678 41.1421 39.9276C41.6165 40.2882 41.9644 40.6408 41.9644 41.0709C41.9644 41.324 41.8205 41.5533 41.6181 41.7826C41.2829 42.1605 40.7847 42.5005 40.168 42.8168C37.9888 43.9317 34.4655 44.6291 30.4993 44.6291C26.5332 44.6291 23.0098 43.9317 20.8307 42.8168C20.2139 42.5005 19.7158 42.1605 19.3805 41.7826C19.1781 41.5533 19.0342 41.324 19.0342 41.0709C19.0342 40.6408 19.3821 40.2882 19.8565 39.9276C20.5887 39.3678 21.6482 38.8902 22.9339 38.5043C23.2353 38.4138 23.4883 38.2072 23.6373 37.93C23.7863 37.6529 23.8192 37.3279 23.7286 37.0265C23.638 36.7252 23.4314 36.4722 23.1542 36.3231C22.8771 36.1741 22.5521 36.1413 22.2508 36.2319C20.293 36.8217 18.7717 37.6298 17.8576 38.5233C17.0543 39.3061 16.6621 40.1822 16.6621 41.0709C16.6621 42.1811 17.2899 43.2881 18.5661 44.2116C20.8054 45.8309 25.3029 47.0012 30.4993 47.0012C35.6958 47.0012 40.1933 45.8309 42.4325 44.2116C43.7087 43.2881 44.3365 42.1811 44.3365 41.0709C44.3365 40.1822 43.9443 39.3061 43.141 38.5233C42.2269 37.6298 40.7056 36.8217 38.7479 36.2319C38.5987 36.187 38.4421 36.172 38.2871 36.1877C38.132 36.2033 37.9816 36.2493 37.8444 36.3231C37.7072 36.3969 37.5858 36.497 37.4873 36.6177C37.3887 36.7384 37.3149 36.8773 37.2701 37.0265C37.2252 37.1757 37.2102 37.3323 37.2258 37.4873C37.2415 37.6424 37.2875 37.7928 37.3613 37.93C37.4351 38.0672 37.5352 38.1886 37.6559 38.2871C37.7766 38.3857 37.9155 38.4595 38.0647 38.5043Z" fill="white"/>
</g>
<defs>
<clipPath id="clip0_854_10020">
<rect width="34" height="34" fill="white" transform="translate(13.5 13)"/>
</clipPath>
</defs>
</svg>
