<svg width="61" height="60" viewBox="0 0 61 60" fill="none" xmlns="http://www.w3.org/2000/svg">
<rect x="0.166016" width="60" height="60" rx="12" fill="#FF5800"/>
<g clip-path="url(#clip0_854_10049)">
<path d="M29.9237 29.3779C32.1737 29.3779 34.122 28.5709 35.714 26.9787C37.3059 25.3868 38.1129 23.439 38.1129 21.1887C38.1129 18.9392 37.3059 16.9911 35.7137 15.3987C34.1215 13.807 32.1734 13 29.9237 13C27.6734 13 25.7255 13.807 24.1336 15.3989C22.5418 16.9909 21.7345 18.939 21.7345 21.1887C21.7345 23.439 22.5417 25.387 24.1339 26.979C25.7261 28.5707 27.6742 29.3779 29.9237 29.3779ZM44.2526 39.1442C44.2066 38.4818 44.1138 37.759 43.9771 36.9959C43.8391 36.227 43.6615 35.5002 43.4487 34.8359C43.229 34.1492 42.9302 33.4712 42.5608 32.8214C42.1774 32.147 41.7271 31.5597 41.2218 31.0764C40.6934 30.5709 40.0464 30.1644 39.2983 29.8679C38.5528 29.573 37.7266 29.4236 36.8429 29.4236C36.4958 29.4236 36.1602 29.566 35.5119 29.988C35.0511 30.2881 34.5889 30.586 34.1254 30.8819C33.68 31.1657 33.0767 31.4316 32.3314 31.6723C31.6043 31.9076 30.8661 32.0269 30.1374 32.0269C29.4088 32.0269 28.6708 31.9076 27.9429 31.6723C27.1985 31.4318 26.5951 31.166 26.1502 30.8821C25.6342 30.5524 25.1674 30.2515 24.7624 29.9877C24.115 29.5657 23.779 29.4233 23.432 29.4233C22.5479 29.4233 21.722 29.5729 20.9768 29.8682C20.2292 30.1642 19.582 30.5706 19.0531 31.0767C18.548 31.5602 18.0975 32.1472 17.7146 32.8214C17.3455 33.4712 17.0467 34.149 16.8267 34.8361C16.6142 35.5005 16.4365 36.227 16.2985 36.9959C16.1618 37.758 16.069 38.481 16.023 39.145C15.9773 39.8133 15.9546 40.4829 15.9551 41.1528C15.9551 42.9276 16.5193 44.3643 17.6318 45.424C18.7307 46.4697 20.1845 47.0001 21.9526 47.0001H38.3238C40.0919 47.0001 41.5452 46.4699 42.6443 45.4241C43.7571 44.3651 44.3213 42.9281 44.3213 41.1525C44.3211 40.4674 44.298 39.7917 44.2526 39.1442Z" fill="white"/>
</g>
<defs>
<clipPath id="clip0_854_10049">
<rect width="34" height="34" fill="white" transform="translate(13.166 13)"/>
</clipPath>
</defs>
</svg>
