<svg width="61" height="60" viewBox="0 0 61 60" fill="none" xmlns="http://www.w3.org/2000/svg">
<rect x="0.833984" width="60" height="60" rx="12" fill="#FF5800"/>
<path d="M41.3014 26.1084C41.2396 25.9994 41.15 25.9087 41.0417 25.8456C40.9335 25.7825 40.8104 25.7493 40.6851 25.7493H31.4059L32.9616 13.8629C32.9783 13.7038 32.941 13.5438 32.8556 13.4085C32.7703 13.2732 32.6419 13.1706 32.4912 13.1171C32.3404 13.0637 32.176 13.0625 32.0245 13.1138C31.873 13.1652 31.7432 13.266 31.656 13.4L20.3715 33.17C20.3055 33.2773 20.2694 33.4003 20.2668 33.5262C20.2641 33.6522 20.2952 33.7766 20.3566 33.8866C20.4181 33.9965 20.5078 34.0881 20.6165 34.1519C20.7251 34.2157 20.8489 34.2493 20.9748 34.2493H30.1154L28.8825 46.1535C28.8704 46.3121 28.9116 46.4701 28.9997 46.6025C29.0878 46.7349 29.2176 46.834 29.3684 46.8841C29.5193 46.9342 29.6827 46.9324 29.8324 46.879C29.9822 46.8256 30.1097 46.7236 30.1949 46.5893L41.2929 26.8215C41.3572 26.714 41.3919 26.5914 41.3934 26.4661C41.3949 26.3408 41.3631 26.2174 41.3014 26.1084Z" fill="white"/>
</svg>
