<svg width="217" height="275" viewBox="0 0 217 275" fill="none" xmlns="http://www.w3.org/2000/svg">
<path d="M32.2715 -2.83398H61.9072V-30H63.1416V-2.83398H92.7773V-30H94.0117V-2.83398H123.647V-30H124.883V-2.83398H154.519V-30H155.753V-2.83398H185.389V-30H186.623V-2.83398H216.259V-30H217.494V-2.83398H247.13V-30H248.364V-2.83398H278V-1.59961H248.364V28.0361H278V29.2715H248.364V58.9072H278V60.1416H248.364V89.7773H278V91.0117H248.364V120.647H278V121.883H248.364V151.519H278V152.753H248.364V182.389H278V183.623H248.364V213.259H278V214.494H248.364V244.13H278V245.364H248.364V275H247.13V245.364H217.494V275H216.259V245.364H186.623V275H185.389V245.364H155.753V275H154.519V245.364H124.883V275H123.647V245.364H94.0117V275H92.7773V245.364H63.1416V275H61.9072V245.364H32.2715V275H31.0361V245.364H0.166016V244.13H31.0361V214.494H0.166016V213.259H31.0361V183.623H0.166016V182.389H31.0361V152.753H0.166016V151.519H31.0361V121.883H0.166016V120.647H31.0361V91.0117H0.166016V89.7773H31.0361V60.1416H0.166016V58.9072H31.0361V29.2715H0.166016V28.0361H31.0361V-1.59961H0.166016V-2.83398H31.0361V-30H32.2715V-2.83398ZM32.2715 244.13H61.9072V214.494H32.2715V244.13ZM63.1416 244.13H92.7773V214.494H63.1416V244.13ZM94.0117 244.13H123.647V214.494H94.0117V244.13ZM124.883 244.13H154.519V214.494H124.883V244.13ZM155.753 244.13H185.389V214.494H155.753V244.13ZM186.623 244.13H216.259V214.494H186.623V244.13ZM217.494 244.13H247.13V214.494H217.494V244.13ZM32.2715 213.259H61.9072V183.623H32.2715V213.259ZM63.1416 213.259H92.7773V183.623H63.1416V213.259ZM94.0117 213.259H123.647V183.623H94.0117V213.259ZM124.883 213.259H154.519V183.623H124.883V213.259ZM155.753 213.259H185.389V183.623H155.753V213.259ZM186.623 213.259H216.259V183.623H186.623V213.259ZM217.494 213.259H247.13V183.623H217.494V213.259ZM32.2715 182.389H61.9072V152.753H32.2715V182.389ZM63.1416 182.389H92.7773V152.753H63.1416V182.389ZM94.0117 182.389H123.647V152.753H94.0117V182.389ZM124.883 182.389H154.519V152.753H124.883V182.389ZM155.753 182.389H185.389V152.753H155.753V182.389ZM186.623 182.389H216.259V152.753H186.623V182.389ZM217.494 182.389H247.13V152.753H217.494V182.389ZM32.2715 151.519H61.9072V121.883H32.2715V151.519ZM63.1416 151.519H92.7773V121.883H63.1416V151.519ZM94.0117 151.519H123.647V121.883H94.0117V151.519ZM124.883 151.519H154.519V121.883H124.883V151.519ZM155.753 151.519H185.389V121.883H155.753V151.519ZM186.623 151.519H216.259V121.883H186.623V151.519ZM217.494 151.519H247.13V121.883H217.494V151.519ZM32.2715 120.647H61.9072V91.0117H32.2715V120.647ZM63.1416 120.647H92.7773V91.0117H63.1416V120.647ZM94.0117 120.647H123.647V91.0117H94.0117V120.647ZM124.883 120.647H154.519V91.0117H124.883V120.647ZM155.753 120.647H185.389V91.0117H155.753V120.647ZM186.623 120.647H216.259V91.0117H186.623V120.647ZM217.494 120.647H247.13V91.0117H217.494V120.647ZM32.2715 89.7773H61.9072V60.1416H32.2715V89.7773ZM63.1416 89.7773H92.7773V60.1416H63.1416V89.7773ZM94.0117 89.7773H123.647V60.1416H94.0117V89.7773ZM124.883 89.7773H154.519V60.1416H124.883V89.7773ZM155.753 89.7773H185.389V60.1416H155.753V89.7773ZM186.623 89.7773H216.259V60.1416H186.623V89.7773ZM217.494 89.7773H247.13V60.1416H217.494V89.7773ZM32.2715 58.9072H61.9072V29.2715H32.2715V58.9072ZM63.1416 58.9072H92.7773V29.2715H63.1416V58.9072ZM94.0117 58.9072H123.647V29.2715H94.0117V58.9072ZM124.883 58.9072H154.519V29.2715H124.883V58.9072ZM155.753 58.9072H185.389V29.2715H155.753V58.9072ZM186.623 58.9072H216.259V29.2715H186.623V58.9072ZM217.494 58.9072H247.13V29.2715H217.494V58.9072ZM32.2715 28.0361H61.9072V-1.59961H32.2715V28.0361ZM63.1416 28.0361H92.7773V-1.59961H63.1416V28.0361ZM94.0117 28.0361H123.647V-1.59961H94.0117V28.0361ZM124.883 28.0361H154.519V-1.59961H124.883V28.0361ZM155.753 28.0361H185.389V-1.59961H155.753V28.0361ZM186.623 28.0361H216.259V-1.59961H186.623V28.0361ZM217.494 28.0361H247.13V-1.59961H217.494V28.0361Z" fill="white" fill-opacity="0.58"/>
</svg>
