<svg width="101" height="100" viewBox="0 0 101 100" fill="none" xmlns="http://www.w3.org/2000/svg">
<rect x="1" y="0.5" width="99" height="99" rx="49.5" fill="#223D60"/>
<rect x="1" y="0.5" width="99" height="99" rx="49.5" stroke="url(#paint0_linear_301_1638)"/>
<path d="M49.4997 39.0938C44.0364 39.0938 39.5918 43.5383 39.5918 49.0012C39.5918 54.4646 44.0364 58.9091 49.4997 58.9091C54.9628 58.9091 59.4071 54.4646 59.4071 49.0013C59.4071 43.5382 54.9628 39.0938 49.4997 39.0938ZM55.382 47.1355L48.2841 54.2333C48.1426 54.3752 47.9744 54.4878 47.7892 54.5645C47.604 54.6413 47.4055 54.6807 47.205 54.6804C47.0046 54.6807 46.8062 54.6413 46.6211 54.5646C46.4359 54.4879 46.2678 54.3752 46.1264 54.2333L43.4139 51.5208C42.818 50.9254 42.818 49.9593 43.4139 49.3634C44.0094 48.7676 44.9754 48.7676 45.5713 49.3634L47.205 50.9972L53.2246 44.9781C53.8201 44.3821 54.7862 44.3821 55.382 44.9781C55.9779 45.5735 55.9779 46.5396 55.382 47.1355Z" fill="#2CB245"/>
<path d="M71.5885 37.1089L71.587 37.0685C71.5634 36.5301 71.5477 35.9915 71.5402 35.4526C71.4977 32.5854 69.2185 30.2137 66.3509 30.0536C60.3723 29.7198 55.7472 27.7704 51.7954 23.9185L51.7617 23.8864C50.4727 22.7045 48.5284 22.7045 47.239 23.8864L47.2052 23.9185C43.2534 27.7704 38.6284 29.7198 32.6497 30.0539C29.7826 30.2137 27.503 32.5855 27.4605 35.4529C27.4531 35.9917 27.4375 36.5302 27.4138 37.0685L27.4114 37.1624C27.2951 43.259 27.1506 50.8464 29.6889 57.7332C31.0847 61.5204 33.1984 64.8124 35.9711 67.5185C39.1291 70.6003 43.2653 73.0469 48.2649 74.7901C48.4295 74.8474 48.5978 74.8932 48.7687 74.9274C49.0115 74.9758 49.256 75 49.5003 75C49.7447 75 49.9895 74.9758 50.2319 74.9274C50.4035 74.893 50.5725 74.8469 50.7377 74.7892C55.7313 73.0429 59.8633 70.5951 63.0184 67.5137C65.79 64.8069 67.9037 61.514 69.3006 57.7261C71.8484 50.8186 71.7044 43.2169 71.5885 37.1089ZM49.4995 61.9599C42.3536 61.9599 36.5404 56.1467 36.5404 49.0008C36.5404 41.8549 42.3537 36.0417 49.4995 36.0417C56.645 36.0417 62.4587 41.8549 62.4587 49.0008C62.4587 56.1468 56.645 61.9599 49.4995 61.9599Z" fill="#2CB245"/>
<defs>
<linearGradient id="paint0_linear_301_1638" x1="89.1179" y1="14.2276" x2="21.2317" y2="90.6504" gradientUnits="userSpaceOnUse">
<stop stop-color="#2CB245"/>
<stop offset="0.471154" stop-color="#2CB245" stop-opacity="0"/>
<stop offset="1" stop-color="#2CB245"/>
</linearGradient>
</defs>
</svg>
