<svg width="76" height="76" viewBox="0 0 76 76" fill="none" xmlns="http://www.w3.org/2000/svg">
<rect width="76" height="76" rx="16" fill="#FF5800"/>
<path d="M41.273 46.1855C41.0345 47.5265 39.7535 48.5 38.2295 48.5C36.9965 48.5 35.8385 48.0035 35.0525 47.1365C34.706 46.7555 34.7345 46.166 35.1155 45.821C35.4965 45.4745 36.086 45.503 36.431 45.884C36.8585 46.355 37.529 46.6355 38.2265 46.6355C38.8955 46.6355 39.365 46.2395 39.434 45.857C39.5255 45.3425 38.7605 45.0185 38.5235 44.93C37.4015 44.516 36.3905 44.0645 36.3905 44.0645C35.4965 43.4945 35.102 42.62 35.231 41.7095C35.3705 40.7405 36.0785 39.9515 37.079 39.65C39.044 39.0575 40.67 40.394 40.736 40.451L40.7405 40.454C41.132 40.784 41.183 41.369 40.853 41.7605L40.8455 41.768C40.5155 42.1595 39.932 42.2105 39.5405 41.8805C39.503 41.8505 38.597 41.1425 37.616 41.4335C37.1795 41.5655 37.0925 41.855 37.076 41.972C37.064 42.0605 37.0565 42.278 37.2695 42.4235C37.2935 42.4235 38.186 42.8165 39.167 43.1795C40.991 43.853 41.4485 45.1715 41.267 46.1825L41.273 46.1855ZM32.276 45.539C31.9355 45.539 31.6175 45.7205 31.4585 46.022C31.2725 46.376 30.8915 46.625 30.461 46.6325C29.8625 46.622 29.3795 46.136 29.381 45.5345C29.381 45.329 29.3705 42.6575 29.369 42.515C29.3675 41.9135 29.8505 41.4275 30.449 41.417C30.8795 41.4245 31.2605 41.6735 31.4465 42.0275C31.6055 42.329 31.9235 42.5105 32.264 42.5105C32.969 42.5105 33.4205 41.759 33.089 41.1365C32.5865 40.1945 31.5845 39.5495 30.431 39.5495C28.811 39.5495 27.497 40.8635 27.497 42.4835L27.509 45.566C27.509 47.186 28.823 48.5 30.443 48.5C31.595 48.5 32.5985 47.855 33.101 46.913C33.4325 46.2905 32.981 45.539 32.276 45.539ZM47.2865 39.5495H47.2685C46.8395 39.5495 46.4705 39.851 46.382 40.2695L45.512 44.444L44.453 40.2335C44.3525 39.8315 43.9895 39.5495 43.5755 39.5495C42.986 39.5495 42.554 40.1045 42.698 40.676L44.4455 47.615C44.576 48.1355 45.044 48.5 45.581 48.5C46.136 48.5 46.6145 48.1115 46.727 47.5685L48.173 40.64C48.29 40.0775 47.861 39.5495 47.2865 39.5495ZM52.9985 35.7275V48.5C52.9985 52.6355 49.634 56 45.4985 56H30.5C26.3645 56 23 52.6355 23 48.5V27.5C23 23.3645 26.3645 20 30.5 20H37.2725C40.0775 20 42.7145 21.0935 44.6975 23.0765L49.9235 28.3025C51.9065 30.2855 52.9985 32.9225 52.9985 35.7275ZM42.575 25.196C42.098 24.719 41.5685 24.3155 40.9985 23.987V30.4985C40.9985 31.3265 41.6705 31.9985 42.4985 31.9985H49.01C48.683 31.4285 48.278 30.899 47.801 30.422L42.575 25.196ZM49.9985 35.7275C49.9985 35.483 49.9865 35.24 49.964 35H42.4985C40.0175 35 37.9985 32.981 37.9985 30.5V23.0345C37.7585 23.012 37.5155 23 37.271 23H30.4985C28.0175 23 25.9985 25.019 25.9985 27.5V48.5C25.9985 50.981 28.0175 53 30.4985 53H45.4985C47.9795 53 49.9985 50.981 49.9985 48.5V35.7275Z" fill="white"/>
</svg>
