<svg width="76" height="76" viewBox="0 0 76 76" fill="none" xmlns="http://www.w3.org/2000/svg">
<rect width="76" height="76" rx="16" fill="#FF5800"/>
<path d="M44 29C44.3978 29 44.7794 29.158 45.0607 29.4393C45.342 29.7206 45.5 30.1022 45.5 30.5C45.5 30.8978 45.342 31.2794 45.0607 31.5607C44.7794 31.842 44.3978 32 44 32H32C31.6022 32 31.2206 31.842 30.9393 31.5607C30.658 31.2794 30.5 30.8978 30.5 30.5C30.5 30.1022 30.658 29.7206 30.9393 29.4393C31.2206 29.158 31.6022 29 32 29H44ZM55.5605 55.5605C55.2792 55.8417 54.8977 55.9997 54.5 55.9997C54.1023 55.9997 53.7208 55.8417 53.4395 55.5605L49.829 51.95C48.7598 52.6324 47.5185 52.9966 46.25 53C44.915 53 43.6099 52.6041 42.4999 51.8624C41.3899 51.1207 40.5247 50.0665 40.0138 48.8331C39.5029 47.5997 39.3692 46.2425 39.6297 44.9331C39.8901 43.6238 40.533 42.421 41.477 41.477C42.421 40.533 43.6238 39.8901 44.9331 39.6297C46.2425 39.3692 47.5997 39.5029 48.8331 40.0138C50.0665 40.5247 51.1207 41.3899 51.8624 42.4999C52.6041 43.6099 53 44.915 53 46.25C52.9966 47.5185 52.6324 48.7598 51.95 49.829L55.5605 53.4395C55.8417 53.7208 55.9997 54.1023 55.9997 54.5C55.9997 54.8977 55.8417 55.2792 55.5605 55.5605ZM46.25 50C46.9917 50 47.7167 49.7801 48.3334 49.368C48.9501 48.956 49.4307 48.3703 49.7145 47.6851C49.9984 46.9998 50.0726 46.2458 49.9279 45.5184C49.7833 44.791 49.4261 44.1228 48.9016 43.5984C48.3772 43.0739 47.709 42.7167 46.9816 42.5721C46.2542 42.4274 45.5002 42.5016 44.8149 42.7855C44.1297 43.0693 43.544 43.5499 43.132 44.1666C42.7199 44.7833 42.5 45.5083 42.5 46.25C42.5 47.2446 42.8951 48.1984 43.5984 48.9016C44.3016 49.6049 45.2554 50 46.25 50ZM39.5 53H30.5C29.3065 53 28.1619 52.5259 27.318 51.682C26.4741 50.8381 26 49.6935 26 48.5V27.5C26 26.3065 26.4741 25.1619 27.318 24.318C28.1619 23.4741 29.3065 23 30.5 23H48.5C48.8978 23 49.2794 23.158 49.5607 23.4393C49.842 23.7206 50 24.1022 50 24.5V36.5C50 36.8978 50.158 37.2794 50.4393 37.5607C50.7206 37.842 51.1022 38 51.5 38C51.8978 38 52.2794 37.842 52.5607 37.5607C52.842 37.2794 53 36.8978 53 36.5V24.5C53 23.3065 52.5259 22.1619 51.682 21.318C50.8381 20.4741 49.6935 20 48.5 20H30.5C28.5116 20.0024 26.6053 20.7933 25.1993 22.1993C23.7933 23.6053 23.0024 25.5116 23 27.5V48.5C23.0024 50.4884 23.7933 52.3947 25.1993 53.8007C26.6053 55.2067 28.5116 55.9976 30.5 56H39.5C39.8978 56 40.2794 55.842 40.5607 55.5607C40.842 55.2794 41 54.8978 41 54.5C41 54.1022 40.842 53.7206 40.5607 53.4393C40.2794 53.158 39.8978 53 39.5 53Z" fill="white"/>
</svg>
