<svg width="76" height="76" viewBox="0 0 76 76" fill="none" xmlns="http://www.w3.org/2000/svg">
<rect width="76" height="76" rx="16" fill="#FF5800"/>
<g clip-path="url(#clip0_1404_212)">
<path d="M32 38C36.9635 38 41 33.9635 41 29C41 24.0365 36.9635 20 32 20C27.0365 20 23 24.0365 23 29C23 33.9635 27.0365 38 32 38ZM32 23C35.309 23 38 25.691 38 29C38 32.309 35.309 35 32 35C28.691 35 26 32.309 26 29C26 25.691 28.691 23 32 23ZM44 53V54.5C44 55.328 43.328 56 42.5 56C41.672 56 41 55.328 41 54.5V53C41 48.0365 36.9635 44 32 44C27.0365 44 23 48.0365 23 53V54.5C23 55.328 22.328 56 21.5 56C20.672 56 20 55.328 20 54.5V53C20 46.3835 25.3835 41 32 41C38.6165 41 44 46.3835 44 53ZM55.5455 35.3255L49.5575 41.138C48.686 42.011 47.5055 42.4985 46.25 42.4985C44.9945 42.4985 43.814 42.0095 42.9275 41.123L39.971 38.342C39.368 37.775 39.3395 36.8255 39.908 36.221C40.4765 35.618 41.4245 35.5895 42.029 36.158L45.017 38.9705C45.7235 39.6755 46.8095 39.644 47.4515 39.002L53.4545 33.173C54.0485 32.5955 54.998 32.6105 55.5755 33.2045C56.153 33.7985 56.138 34.7495 55.544 35.3255H55.5455Z" fill="white"/>
</g>
<defs>
<clipPath id="clip0_1404_212">
<rect width="36" height="36" fill="white" transform="translate(20 20)"/>
</clipPath>
</defs>
</svg>
