<svg width="76" height="76" viewBox="0 0 76 76" fill="none" xmlns="http://www.w3.org/2000/svg">
<rect width="76" height="76" rx="16" fill="#FF5800"/>
<path d="M29 33.5C29 36.0305 30.074 38.4575 31.9475 40.16C33.6065 41.669 35.7815 42.4985 38.0195 42.4985C38.3045 42.4985 38.5925 42.485 38.879 42.458C43.433 42.023 47 37.9475 47 33.1775V32H48.5V29H47V28.25C47 23.7005 43.2995 20 38.75 20H37.25C32.7005 20 29 23.7005 29 28.25V29H27.5V32H29V33.5ZM44 33.1775C44 36.4175 41.6255 39.182 38.594 39.4715C36.8765 39.6335 35.231 39.092 33.965 37.94C32.7155 36.8045 32 35.186 32 33.5V32H44V33.1775ZM32 28.25C32 25.61 33.959 23.4185 36.5 23.054V27.5H39.5V23.054C42.041 23.4185 44 25.61 44 28.25V29H32V28.25ZM51.5 51.5V56H48.5V51.5C48.5 49.019 46.481 47 44 47H32C29.519 47 27.5 49.019 27.5 51.5V56H24.5V51.5C24.5 47.3645 27.8645 44 32 44H44C48.1355 44 51.5 47.3645 51.5 51.5Z" fill="white"/>
</svg>
