<svg width="76" height="76" viewBox="0 0 76 76" fill="none" xmlns="http://www.w3.org/2000/svg">
<rect width="76" height="76" rx="16" fill="#FF5800"/>
<path d="M51.5 56H48.5V48.4355C48.4988 47.2595 48.0311 46.132 47.1996 45.3004C46.368 44.4689 45.2405 44.0012 44.0645 44H31.9355C30.7595 44.0012 29.632 44.4689 28.8004 45.3004C27.9689 46.132 27.5012 47.2595 27.5 48.4355V56H24.5V48.4355C24.5024 46.4642 25.2865 44.5743 26.6804 43.1804C28.0743 41.7865 29.9642 41.0024 31.9355 41H44.0645C46.0358 41.0024 47.9257 41.7865 49.3196 43.1804C50.7135 44.5743 51.4976 46.4642 51.5 48.4355V56Z" fill="white"/>
<path d="M38 38C36.22 38 34.4799 37.4722 32.9999 36.4832C31.5198 35.4943 30.3663 34.0887 29.6851 32.4442C29.0039 30.7996 28.8257 28.99 29.1729 27.2442C29.5202 25.4984 30.3774 23.8947 31.636 22.636C32.8947 21.3774 34.4984 20.5202 36.2442 20.1729C37.99 19.8257 39.7996 20.0039 41.4442 20.6851C43.0887 21.3663 44.4943 22.5198 45.4832 23.9999C46.4722 25.4799 47 27.22 47 29C46.9976 31.3862 46.0486 33.674 44.3613 35.3613C42.674 37.0486 40.3862 37.9976 38 38ZM38 23C36.8133 23 35.6533 23.3519 34.6666 24.0112C33.6799 24.6705 32.9109 25.6075 32.4567 26.7039C32.0026 27.8003 31.8838 29.0067 32.1153 30.1705C32.3468 31.3344 32.9182 32.4035 33.7574 33.2426C34.5965 34.0818 35.6656 34.6532 36.8295 34.8847C37.9933 35.1162 39.1997 34.9974 40.2961 34.5433C41.3925 34.0892 42.3295 33.3201 42.9888 32.3334C43.6481 31.3467 44 30.1867 44 29C44 27.4087 43.3679 25.8826 42.2426 24.7574C41.1174 23.6321 39.5913 23 38 23Z" fill="white"/>
</svg>
